<svg xmlns="http://www.w3.org/2000/svg" width="96" height="96" viewBox="0 0 96 96">
    <g fill="none" fill-rule="evenodd">
        <path d="M0 0h96v96H0z"/>
        <g transform="translate(0 9)">
            <ellipse cx="45.5" cy="71" fill="#00FDFC" rx="45.5" ry="6"/>
            <path fill="#FFF" d="M70 64.954C70 66.815 68.18 68 66.359 68H25.64C23.821 68 22 66.815 22 64.954V16.469c.169-1.937 1.739-3.433 3.641-3.469h6.29v4.316c.087.948.89 1.657 1.82 1.607h24.414c.948.053 1.776-.646 1.904-1.607V13h6.29c1.902.036 3.472 1.531 3.64 3.47v48.484H70z"/>
            <g fill="#278EFF" fill-rule="nonzero">
                <path d="M67 9.302h-6.333V6.43c0-.93-1-1.352-1.917-1.352h-4.917C52.667 1.696 49.75.005 46.417.005 43.12-.12 40.122 1.93 39 5.077h-4.833c-.917 0-1.834.422-1.834 1.352v2.873H26c-3.753.04-6.824 3.044-7 6.846v48.429C19 68.295 22.333 71 26 71h41c3.667 0 7-2.705 7-6.423V16.148c-.176-3.802-3.247-6.805-7-6.846zm-31.333-.845h4.583a1.845 1.845 0 0 0 1.583-1.521c.494-2.18 2.38-3.744 4.584-3.803 2.184.067 4.04 1.636 4.5 3.803.15.833.834 1.458 1.666 1.521h4.75v6.762H35.667V8.457zm35 56.12c0 1.86-1.834 3.042-3.667 3.042H26c-1.833 0-3.667-1.183-3.667-3.042V16.148c.17-1.935 1.751-3.43 3.667-3.465h6.333v4.31a1.758 1.758 0 0 0 1.834 1.607H58.75a1.84 1.84 0 0 0 1.917-1.606v-4.311H67c1.915.036 3.496 1.53 3.667 3.465v48.429z"/>
                <path d="M40.042 37.749a1.598 1.598 0 0 0-2.297-.085l-5.251 5.197-2.215-2.386a1.598 1.598 0 0 0-2.297-.085 1.84 1.84 0 0 0 0 2.471l3.363 3.579c.291.338.712.525 1.149.51.433-.006.845-.19 1.148-.51l6.4-6.305a1.663 1.663 0 0 0 0-2.386zM63.815 41.226h-19.32c-.928 0-1.68.769-1.68 1.718 0 .948.752 1.717 1.68 1.717h19.32c.928 0 1.68-.769 1.68-1.717 0-.95-.752-1.718-1.68-1.718zM40.042 24.58a1.598 1.598 0 0 0-2.297-.085l-5.251 5.197-2.215-2.386a1.598 1.598 0 0 0-2.297-.085 1.84 1.84 0 0 0 0 2.47l3.363 3.58c.291.338.712.525 1.149.51.433-.006.845-.19 1.148-.51l6.4-6.306a1.663 1.663 0 0 0 0-2.385zM63.815 28.056h-19.32c-.928 0-1.68.77-1.68 1.718 0 .949.752 1.718 1.68 1.718h19.32c.928 0 1.68-.77 1.68-1.718 0-.949-.752-1.718-1.68-1.718zM40.042 51.49a1.598 1.598 0 0 0-2.297-.084l-5.251 5.197-2.215-2.386a1.598 1.598 0 0 0-2.297-.085 1.84 1.84 0 0 0 0 2.471l3.363 3.579c.291.338.712.525 1.149.51.433-.006.845-.19 1.148-.51l6.4-6.305a1.663 1.663 0 0 0 0-2.386zM63.815 54.968h-19.32c-.928 0-1.68.769-1.68 1.717 0 .95.752 1.718 1.68 1.718h19.32c.928 0 1.68-.769 1.68-1.718 0-.948-.752-1.717-1.68-1.717z"/>
            </g>
            <path fill="#00FDFC" d="M36 8.287h4.654a1.855 1.855 0 0 0 1.608-1.51A4.898 4.898 0 0 1 46.915 3c2.218.067 4.104 1.625 4.57 3.776a1.856 1.856 0 0 0 1.692 1.51H58V15H36V8.287z"/>
        </g>
    </g>
</svg>
