<svg xmlns="http://www.w3.org/2000/svg" width="120" height="120" viewBox="0 0 120 120">
    <g fill="none" fill-rule="evenodd">
        <g stroke="#278EFF" stroke-linejoin="round">
            <path fill="#FFF" stroke-width="3" d="M47 44.047L72.626 87.5H21.374L47 44.047zm0 19.174L39.485 77.5h15.03L47 63.22zM74 88.953L48.374 45.5h51.252L74 88.953z"/>
            <g fill="#01E8CD" stroke-width="3.3">
                <path d="M46.937 20.35a4.587 4.587 0 1 1-.001 9.174 4.587 4.587 0 0 1 0-9.174zM54.397 48.4H39.35v-7.525a7.524 7.524 0 1 1 15.047 0v7.526z"/>
            </g>
            <g fill="#01E8CD" stroke-width="3.6">
                <path d="M20.154 61.085c2.756 0 4.963 2.286 4.963 5.076 0 2.79-2.207 5.077-4.965 5.077-2.752-.003-4.957-2.288-4.96-5.077 0-2.79 2.207-5.076 4.962-5.076zM28.28 92.454H12.03v-8.353c0-4.6 3.622-8.353 8.124-8.353 4.502 0 8.126 3.754 8.126 8.353v8.353z"/>
            </g>
            <g fill="#01E8CD" stroke-width="3.6">
                <path d="M74.154 60.085c2.756 0 4.963 2.286 4.963 5.076 0 2.79-2.207 5.077-4.965 5.077-2.752-.003-4.957-2.288-4.96-5.077 0-2.79 2.207-5.076 4.962-5.076zM82.28 91.454H66.03v-8.353c0-4.6 3.622-8.353 8.124-8.353 4.502 0 8.126 3.754 8.126 8.353v8.353z"/>
            </g>
            <g fill="#01E8CD" stroke-width="3.6">
                <path d="M101.154 21.085c2.756 0 4.963 2.286 4.963 5.076 0 2.79-2.207 5.077-4.965 5.077-2.752-.003-4.957-2.288-4.96-5.077 0-2.79 2.207-5.076 4.962-5.076zM109.28 52.454H93.03v-8.353c0-4.6 3.622-8.353 8.124-8.353 4.502 0 8.126 3.754 8.126 8.353v8.353z"/>
            </g>
        </g>
        <path d="M0 0h120v120H0z"/>
    </g>
</svg>
