<svg xmlns="http://www.w3.org/2000/svg" width="96" height="96" viewBox="0 0 96 96">
    <g fill="none" fill-rule="evenodd">
        <g stroke-width="3">
            <path fill="#FFF" stroke="#3495FF" d="M24.095 15.268C28.08 13.805 33.428 13 39.148 13c5.721 0 11.067.805 15.054 2.268 3.5 1.284 5.095 2.822 5.095 3.709 0 .886-1.595 2.425-5.095 3.709-3.987 1.462-9.333 2.268-15.054 2.268-5.72 0-11.067-.806-15.053-2.268-3.5-1.284-5.095-2.823-5.095-3.71 0-.886 1.594-2.424 5.095-3.708zM19 33c4.682 3.393 12.445 5.139 20.149 5.139 7.704 0 15.466-1.746 20.148-5.139v10.125l-6.1 2.195c-1.34.454-2.31 1.857-2.49 3.523-3.43 1.006-7.363 1.535-11.484 1.535-5.721 0-11.067-.987-15.054-2.777-3.5-1.572-5.095-3.456-5.095-4.542 0-.237-.027-.467-.074-.687V33z"/>
            <path fill="#FFF" stroke="#3495FF" d="M39.149 26.139c7.704 0 15.466-1.746 20.148-5.139v12c-3.865 3.333-9.964 5-18.297 5-8.9 0-15.207-1.67-16.831-2.399-3.5-1.572-5.095-3.456-5.095-4.542 0-.237-.027-.467-.074-.687V21c4.682 3.393 12.445 5.139 20.149 5.139zM19 44.935c4.674 3.428 12.478 5.193 20.222 5.193 4.048 0 7.95-.479 11.453-1.392v11.383c-3.407.976-7.43 1.507-11.526 1.507-5.721 0-11.067-.986-15.054-2.776-3.5-1.572-5.095-3.457-5.095-4.542v-9.373z"/>
            <path fill="#FFF" stroke="#3495FF" d="M19 55.955c4.682 3.393 12.445 5.14 20.149 5.14 4.095 0 8.022-.474 11.527-1.375v2.124c0 3.385 1.396 6.463 3.69 8.237C50.547 71.922 45.109 73 39.222 73c-5.72 0-11.067-.986-15.053-2.776-3.5-1.572-5.095-3.456-5.095-4.542 0-.237-.027-.467-.074-.687v-9.04z"/>
            <path fill="#FFF" stroke="#3495FF" d="M54.202 80.698c-3.986 1.79-9.333 2.777-15.053 2.777-5.721 0-11.067-.987-15.054-2.777-3.5-1.572-5.095-3.456-5.095-4.542V68.2c4.674 3.428 12.478 5.193 20.222 5.193 8.072 0 15.298-1.872 19.738-5.056l.337.244v7.575c0 1.086-1.594 2.97-5.095 4.542z"/>
            <path fill="#01E8CD" stroke="#278EFF" stroke-linejoin="round" d="M78.555 70.918l-.081.041-11.527 6.813a4.476 4.476 0 0 1-3.894 0l-11.45-6.767-.158-.087A4.456 4.456 0 0 1 49 66.923V43.44v-.737l9.02-2.651.013-.004L65 38l16 4.703v24.22c0 1.699-.937 3.23-2.445 3.995z"/>
            <path stroke="#FFF" d="M57 56l7.517 7.517 10-10"/>
        </g>
        <path d="M0 0h96v96H0z"/>
    </g>
</svg>
