<svg xmlns="http://www.w3.org/2000/svg" width="222" height="278" viewBox="0 0 222 278">
    <defs>
        <linearGradient id="a" x1="50%" x2="50%" y1="100%" y2="-42.514%">
            <stop offset="0%" stop-color="#00E8FF"/>
            <stop offset="100%" stop-color="#004D66"/>
        </linearGradient>
        <linearGradient id="b" x1="17.893%" x2="91.939%" y1="76.839%" y2="0%">
            <stop offset="0%" stop-color="#00E8FF"/>
            <stop offset="100%" stop-color="#004D66"/>
        </linearGradient>
        <linearGradient id="c" x1="0%" y1="50%" y2="50%">
            <stop offset="0%" stop-color="#00E8FF"/>
            <stop offset="100%" stop-color="#004D66"/>
        </linearGradient>
        <linearGradient id="d" x1="0%" x2="100.001%" y1="50%" y2="50%">
            <stop offset="0%" stop-color="#00EDFF"/>
            <stop offset="100%" stop-color="#1400FF"/>
        </linearGradient>
        <linearGradient id="e" x1="74.999%" x2="25.897%" y1="25.001%" y2="74.103%">
            <stop offset="0%" stop-color="#00EDFF"/>
            <stop offset="100%" stop-color="#1400FF"/>
        </linearGradient>
        <linearGradient id="f" x1=".001%" y1="50%" y2="50%">
            <stop offset="0%" stop-color="#00EDFF"/>
            <stop offset="100%" stop-color="#1400FF"/>
        </linearGradient>
    </defs>
    <g fill="none" fill-rule="evenodd">
        <path fill="url(#a)" d="M55.32 221.496l55.35 55.426 55.355-55.426-27.682-27.709-27.673-27.71z"/>
        <path fill="url(#b)" d="M0 110.851l55.357 110.844 55.35-55.418V0z"/>
        <path fill="url(#c)" d="M110.64 166.277l27.674 27.709 27.682 27.709 55.357-110.844L110.64 0z"/>
        <path fill="url(#d)" fill-opacity=".4" d="M110.705 222.044v55.425l-55.356-55.425L0 111.2l83.03 83.135z"/>
        <path fill="url(#e)" fill-opacity=".4" d="M221.418 110.851l-83.039 83.135-27.674 27.709-27.675-27.71L0 110.852 110.705 0z"/>
        <path fill="url(#f)" fill-opacity=".4" d="M221.354 111.2l-55.357 110.844-55.356 55.425v-55.425l27.674-27.71z"/>
    </g>
</svg>
