<svg xmlns="http://www.w3.org/2000/svg" width="96" height="96" viewBox="0 0 96 96">
    <g fill="none" fill-rule="evenodd">
        <path d="M0 0h96v96H0z"/>
        <path fill="#01E8CD" d="M82.533 73.136a2.465 2.465 0 0 1-2.466 2.464H15.933a2.465 2.465 0 0 1-2.466-2.464v-54.2a2.465 2.465 0 0 1 2.466-2.463h64.134a2.465 2.465 0 0 1 2.466 2.464v54.199z"/>
        <path fill="#278EFF" fill-rule="nonzero" d="M80.067 14.01H15.933A4.93 4.93 0 0 0 11 18.937v54.199a4.93 4.93 0 0 0 4.933 4.927v3.696c0 .68.552 1.231 1.234 1.231h7.4c.68 0 1.233-.551 1.233-1.231v-3.696h44.4v3.696c0 .68.552 1.231 1.233 1.231h7.4c.681 0 1.233-.551 1.233-1.231v-3.696A4.93 4.93 0 0 0 85 73.136v-54.2a4.93 4.93 0 0 0-4.933-4.926zM23.333 80.527H18.4v-2.464h4.933v2.464zm54.267 0h-4.933v-2.464H77.6v2.464zm4.933-7.391a2.465 2.465 0 0 1-2.466 2.464H15.933a2.465 2.465 0 0 1-2.466-2.464v-54.2a2.465 2.465 0 0 1 2.466-2.463h64.134a2.465 2.465 0 0 1 2.466 2.464v54.199z"/>
        <path fill="#278EFF" fill-rule="nonzero" d="M77.6 18.937H18.4a2.465 2.465 0 0 0-2.467 2.463v49.272a2.465 2.465 0 0 0 2.467 2.464h59.2a2.465 2.465 0 0 0 2.467-2.464V21.4a2.465 2.465 0 0 0-2.467-2.463zm0 51.735H18.4V21.4h59.2v49.272z"/>
        <path fill="#FFF" d="M77.6 70.672H18.4V21.4h59.2z"/>
        <path fill="#278EFF" fill-rule="nonzero" d="M21.333 47.266l3.319.002c.11.89.34 1.76.687 2.587l-1.135.655a1.232 1.232 0 1 0 1.233 2.134l1.149-.662a9.958 9.958 0 0 0 1.891 1.89l-.662 1.147a1.23 1.23 0 0 0 1.067 1.855c.442-.001.85-.24 1.07-.623l.655-1.134c.828.346 1.7.577 2.59.686v3.32a1.232 1.232 0 0 0 2.467 0v-3.317c.89-.11 1.762-.34 2.59-.686l.656 1.133a1.234 1.234 0 1 0 2.136-1.232l-.662-1.147a9.958 9.958 0 0 0 1.892-1.89l1.148.662a1.235 1.235 0 0 0 1.857-1.065 1.232 1.232 0 0 0-.624-1.068l-1.134-.656a9.831 9.831 0 0 0 .687-2.586h3.323a1.233 1.233 0 1 0 0-2.464h-3.318a9.831 9.831 0 0 0-.687-2.587l1.134-.655a1.232 1.232 0 1 0-1.233-2.133l-1.148.661a9.958 9.958 0 0 0-1.892-1.89l.662-1.146a1.23 1.23 0 0 0-1.067-1.855c-.442 0-.85.239-1.069.623l-.656 1.133a9.857 9.857 0 0 0-2.59-.686V32.95a1.233 1.233 0 0 0-2.467 0v3.317c-.89.11-1.762.34-2.59.686l-.656-1.133a1.234 1.234 0 1 0-2.136 1.232l.662 1.147a9.958 9.958 0 0 0-1.892 1.89l-1.148-.662a1.235 1.235 0 0 0-1.857 1.065c.001.442.24.85.624 1.068l1.135.656a9.826 9.826 0 0 0-.687 2.586h-3.324a1.232 1.232 0 1 0 0 2.464zm13.1-8.62c4.087 0 7.4 3.309 7.4 7.39 0 4.082-3.313 7.391-7.4 7.391s-7.4-3.309-7.4-7.39c.004-4.08 3.315-7.387 7.4-7.391zM52.933 39.877H55.4a2.465 2.465 0 0 0 2.467-2.463V34.95a2.465 2.465 0 0 0-2.467-2.463h-2.467a2.465 2.465 0 0 0-2.466 2.463v2.464a2.465 2.465 0 0 0 2.466 2.463zm0-4.927H55.4v2.464h-2.467V34.95zM61.567 39.877h2.466a2.465 2.465 0 0 0 2.467-2.463V34.95a2.465 2.465 0 0 0-2.467-2.463h-2.466A2.465 2.465 0 0 0 59.1 34.95v2.464a2.465 2.465 0 0 0 2.467 2.463zm0-4.927h2.466v2.464h-2.466V34.95zM70.2 39.877h2.467a2.465 2.465 0 0 0 2.466-2.463V34.95a2.465 2.465 0 0 0-2.466-2.463H70.2a2.465 2.465 0 0 0-2.467 2.463v2.464a2.465 2.465 0 0 0 2.467 2.463zm0-4.927h2.467v2.464H70.2V34.95zM52.933 49.732H55.4a2.465 2.465 0 0 0 2.467-2.464v-2.463A2.465 2.465 0 0 0 55.4 42.34h-2.467a2.465 2.465 0 0 0-2.466 2.464v2.463a2.465 2.465 0 0 0 2.466 2.464zm0-4.927H55.4v2.463h-2.467v-2.463zM61.567 49.732h2.466a2.465 2.465 0 0 0 2.467-2.464v-2.463a2.465 2.465 0 0 0-2.467-2.464h-2.466a2.465 2.465 0 0 0-2.467 2.464v2.463a2.465 2.465 0 0 0 2.467 2.464zm0-4.927h2.466v2.463h-2.466v-2.463zM70.2 49.732h2.467a2.465 2.465 0 0 0 2.466-2.464v-2.463a2.465 2.465 0 0 0-2.466-2.464H70.2a2.465 2.465 0 0 0-2.467 2.464v2.463a2.465 2.465 0 0 0 2.467 2.464zm0-4.927h2.467v2.463H70.2v-2.463zM52.933 59.586H55.4a2.465 2.465 0 0 0 2.467-2.463v-2.464a2.465 2.465 0 0 0-2.467-2.464h-2.467a2.465 2.465 0 0 0-2.466 2.464v2.464a2.465 2.465 0 0 0 2.466 2.463zm0-4.927H55.4v2.464h-2.467v-2.464zM61.567 59.586h2.466a2.465 2.465 0 0 0 2.467-2.463v-2.464a2.465 2.465 0 0 0-2.467-2.464h-2.466A2.465 2.465 0 0 0 59.1 54.66v2.464a2.465 2.465 0 0 0 2.467 2.463zm0-4.927h2.466v2.464h-2.466v-2.464zM70.2 59.586h2.467a2.465 2.465 0 0 0 2.466-2.463v-2.464a2.465 2.465 0 0 0-2.466-2.464H70.2a2.465 2.465 0 0 0-2.467 2.464v2.464a2.465 2.465 0 0 0 2.467 2.463zm0-4.927h2.467v2.464H70.2v-2.464z"/>
        <path fill="#01E8CD" d="M34.433 38.646c4.087 0 7.4 3.309 7.4 7.39 0 4.082-3.313 7.391-7.4 7.391s-7.4-3.309-7.4-7.39c.004-4.08 3.315-7.387 7.4-7.391z"/>
        <path fill="#01E8CD" stroke="#278EFF" stroke-width="3" d="M34.433 42.911c1.728 0 3.13 1.4 3.13 3.125 0 1.726-1.402 3.125-3.13 3.125a3.127 3.127 0 0 1-3.129-3.125 3.13 3.13 0 0 1 3.13-3.125z"/>
    </g>
</svg>
