<svg xmlns="http://www.w3.org/2000/svg" width="29" height="29" viewBox="0 0 29 29">
    <path fill="#ffffff" fill-rule="nonzero" d="M14.5 0C22.496 0 29 6.505 29 14.5S22.495 29 14.5 29 0 22.495 0 14.5 6.505 0 14.5 0zM5.3 14.713l3.917 1.383 1.517 4.612c.097.295.478.404.732.208l2.183-1.683a.681.681 0 0 1 .795-.021l3.938 2.704c.27.187.655.046.723-.264L21.99 8.526c.074-.338-.277-.62-.618-.496L5.296 13.896a.429.429 0 0 0 .004.817zm5.1.665l8.376-4.358c.15-.078.305.094.176.195l-6.912 5.428c-.243.191-.4.447-.444.724l-.235 1.474c-.032.197-.359.217-.423.026l-.906-2.688c-.103-.306.048-.634.369-.801z"/>
</svg>
