<svg xmlns="http://www.w3.org/2000/svg" width="29" height="29" viewBox="0 0 29 29">
    <path fill="#ffffff" fill-rule="evenodd" d="M14.5 29C6.492 29 0 22.508 0 14.5S6.492 0 14.5 0 29 6.492 29 14.5 22.508 29 14.5 29zm8.522-13.832a1.523 1.523 0 0 0-1.92-.977l-1.534.499-1.041-3.206 1.534-.5a1.523 1.523 0 1 0-.941-2.896l-1.535.499-.499-1.534a1.522 1.522 0 1 0-2.896.94l.5 1.535-3.206 1.042-.498-1.534a1.523 1.523 0 0 0-2.897.94l.5 1.536-1.584.515a1.522 1.522 0 0 0-.945 1.853c.233.807 1.09 1.3 1.885 1.043l1.583-.516 1.042 3.206-1.583.515a1.524 1.524 0 0 0-.945 1.853c.233.808 1.091 1.302 1.885 1.043l1.585-.515.515 1.584a1.524 1.524 0 0 0 1.852.944c.808-.233 1.302-1.09 1.043-1.885l-.514-1.583 3.206-1.042.515 1.583a1.524 1.524 0 0 0 1.853.945c.808-.233 1.301-1.091 1.043-1.885l-.515-1.584 1.534-.499c.8-.26 1.238-1.118.978-1.919zm-10.036 2.45l-1.504-4.631 4.63-1.505 1.505 4.63-4.63 1.505z"/>
</svg>
