<svg xmlns="http://www.w3.org/2000/svg" width="29" height="29" viewBox="0 0 29 29">
    <path fill="#ffffff" fill-rule="nonzero" d="M14.5 0C6.505 0 0 6.505 0 14.5S6.505 29 14.5 29 29 22.495 29 14.5 22.496 0 14.5 0zm6.469 11.181c.006.144.01.289.01.434 0 4.41-3.357 9.494-9.497 9.494a9.44 9.44 0 0 1-5.116-1.498c.261.03.527.046.796.046a6.698 6.698 0 0 0 4.146-1.428A3.34 3.34 0 0 1 8.19 15.91a3.364 3.364 0 0 0 1.507-.057 3.338 3.338 0 0 1-2.677-3.272v-.042c.45.25.965.4 1.511.417a3.335 3.335 0 0 1-1.484-2.777c0-.612.164-1.186.452-1.679a9.476 9.476 0 0 0 6.878 3.488 3.337 3.337 0 0 1 5.687-3.045 6.662 6.662 0 0 0 2.12-.81 3.352 3.352 0 0 1-1.469 1.847c.676-.08 1.32-.26 1.917-.525a6.713 6.713 0 0 1-1.663 1.725z"/>
</svg>
