<svg xmlns="http://www.w3.org/2000/svg" width="29" height="29" viewBox="0 0 29 29">
    <g fill="#ffffff" fill-rule="nonzero">
        <path d="M7 13.24a1.33 1.33 0 0 0-.763-.24C5.555 13 5 13.499 5 14.111c0 .355.19.683.501.889.257-.661.78-1.261 1.499-1.76zM21.5 8a.5.5 0 1 0-.001-1 .5.5 0 0 0 .001 1z"/>
        <path d="M14.5 0C6.492 0 0 6.492 0 14.5S6.492 29 14.5 29 29 22.508 29 14.5 22.508 0 14.5 0zm9.154 16.327c.038.228.063.46.063.695 0 3.394-4.154 6.155-9.26 6.155s-9.26-2.761-9.26-6.155c0-.25.03-.495.073-.737a2.294 2.294 0 0 1-1.136-1.977 2.297 2.297 0 0 1 2.294-2.295c.578 0 1.129.23 1.551.62 1.634-1.066 3.857-1.73 6.31-1.76l1.429-4.517a.322.322 0 0 1 .38-.217l3.74.88a1.877 1.877 0 0 1 1.745-1.195A1.88 1.88 0 0 1 23.46 7.7a1.88 1.88 0 0 1-1.877 1.877A1.88 1.88 0 0 1 19.705 7.7c0-.018.005-.033.006-.05l-3.47-.818-1.281 4.052c2.346.084 4.465.744 6.03 1.78a2.27 2.27 0 0 1 1.582-.652 2.298 2.298 0 0 1 2.296 2.295 2.28 2.28 0 0 1-1.214 2.019z"/>
        <path d="M10 15.273c0-.702.61-1.273 1.362-1.273.75 0 1.36.571 1.36 1.273s-.61 1.273-1.36 1.273c-.751 0-1.362-.571-1.362-1.273zm7.801 3.774c-.686.641-1.763.953-3.292.953l-.011-.002-.012.002c-1.53 0-2.606-.312-3.292-.953a.286.286 0 0 1 0-.424.337.337 0 0 1 .453 0c.56.524 1.488.778 2.84.778l.01.002.012-.002c1.35 0 2.28-.254 2.84-.778a.337.337 0 0 1 .453 0 .286.286 0 0 1-.001.424zm-.162-2.501c-.75 0-1.362-.57-1.362-1.273 0-.702.61-1.273 1.362-1.273.75 0 1.361.571 1.361 1.273s-.61 1.273-1.361 1.273zM22.781 13c-.29 0-.563.094-.781.258.704.493 1.212 1.088 1.457 1.742.335-.2.543-.534.543-.906C24 13.49 23.454 13 22.781 13z"/>
    </g>
</svg>
