<svg xmlns="http://www.w3.org/2000/svg" width="706" height="205" viewBox="0 0 706 205">
    <defs>
        <linearGradient id="a" x1="0%" y1="50%" y2="50%">
            <stop offset="0%" stop-color="#00FFAE"/>
            <stop offset="100%" stop-color="#004D66"/>
        </linearGradient>
        <linearGradient id="b" x1="81.924%" x2="32.821%" y1="-1.665%" y2="97.03%">
            <stop offset="0%" stop-color="#00FFAE"/>
            <stop offset="100%" stop-color="#004D66"/>
        </linearGradient>
        <linearGradient id="c" x1="-.001%" y1="50%" y2="50%">
            <stop offset="0%" stop-color="#00FFAE"/>
            <stop offset="100%" stop-color="#004D66"/>
        </linearGradient>
        <linearGradient id="d" x1="0%" x2="100.001%" y1="50%" y2="50%">
            <stop offset="0%" stop-color="#00EDFF"/>
            <stop offset="100%" stop-color="#1400FF"/>
        </linearGradient>
        <linearGradient id="e" x1="74.999%" x2="25.897%" y1="25.001%" y2="74.103%">
            <stop offset="0%" stop-color="#00EDFF"/>
            <stop offset="100%" stop-color="#1400FF"/>
        </linearGradient>
        <linearGradient id="f" x1=".001%" y1="50%" y2="50%">
            <stop offset="0%" stop-color="#00EDFF"/>
            <stop offset="100%" stop-color="#1400FF"/>
        </linearGradient>
    </defs>
    <g fill="none" fill-rule="evenodd">
        <g fill="#FFF">
            <path d="M215.237 113.724c0 8.387 3.584 9.752 8.163 9.752 1.792 0 6.67-.196 10.654-1.17l.497 6.73c-3.384.973-7.566 1.169-10.056 1.169-10.155 0-16.427-2.535-16.427-16.481v-32.67H201V74.52h7.068V60.38l7.17-.392V74.52h19.313v6.535h-19.314v32.669zM294.542 117.56V104.2c-11.051-.78-22.699-1.17-26.183-1.17-9.557 0-15.83 2.535-15.83 11.41 0 9.46 7.269 11.02 17.622 11.02 12.942 0 19.315-2.439 24.391-7.9zm-45.497-41.055c9.159-1.464 21.006-2.147 25.984-2.147 16.526 0 26.682 7.509 26.682 22.919v19.797c0 4.193.697 7.995 5.178 7.995 1.294 0 1.393-.29 1.393-.29l.398 6.728c-.796.097-1.393.097-1.991.097-6.372 0-9.557-3.023-11.05-7.217-4.98 5.072-11.948 7.803-25.39 7.803-14.833 0-24.888-3.413-24.888-17.848 0-13.848 9.26-17.943 23.297-17.943 3.983 0 15.132.39 25.884 1.169v-.39c0-10.727-6.173-15.895-19.612-16.091-5.277-.097-16.526.78-25.289 2.147l-.596-6.73zM369.565 123.314l.497 6.73c-8.064 1.364-16.627 2.144-23.396 2.144-16.229 0-29.369-8.484-29.369-28.963 0-23.113 13.14-28.867 29.37-28.867 6.768 0 15.331.877 23.395 2.145l-.497 6.828c-7.866-1.757-16.427-2.244-22.402-2.244-12.643 0-22.697 3.803-22.697 22.138 0 15.798 10.054 22.333 22.697 22.333 5.975 0 14.536-.489 22.402-2.244M384.438 130.264V54.39l7.068-.39v22.235c8.066-1.463 16.229-2.438 21.705-2.438 15.629 0 27.676 7.607 27.676 29.842v26.625h-7.068v-26.625c0-17.75-9.06-23.113-21.305-23.113-4.282 0-12.744.683-21.008 2.243v47.495h-7.068zM478.053 127.02L449.18 74.358h8.064l24.59 45.25 22.9-45.25h7.467l-38.73 76.458h-7.466zM570.589 103.42c0-17.456-10.353-22.234-22.501-22.234-12.443 0-22.2 5.168-22.2 22.039 0 17.359 10.353 22.236 22.4 22.236 12.544 0 22.301-5.17 22.301-22.04m-51.87-.196c0-22.04 12.843-28.867 29.369-28.867 16.03 0 29.67 6.34 29.67 29.062 0 22.04-12.845 28.867-29.47 28.867-15.93 0-29.57-6.436-29.57-29.062M623.527 74.358c16.328 0 28.374 5.755 28.374 28.087v28.38h-7.069v-28.38c0-17.75-9.06-21.358-21.903-21.358-4.08 0-12.144.293-20.41 1.365v48.373h-7.068v-54.32c10.355-1.269 21.804-2.147 28.076-2.147"/>
        </g>
        <path fill="url(#a)" d="M38 153.206l38.206 38.211 38.21-38.211-19.108-19.103L76.206 115z" transform="translate(16 5)"/>
        <path fill="url(#b)" d="M0 76.422l38.211 76.417 38.206-38.206V0z" transform="translate(16 5)"/>
        <path fill="url(#c)" d="M77 114.633l19.102 19.103 19.108 19.103 38.211-76.417L77 0z" transform="translate(16 5)"/>
        <path fill="url(#d)" fill-opacity=".4" d="M76.416 153.417v38.211l-38.21-38.211L0 77l57.313 57.314z" transform="translate(16 5)"/>
        <path fill="url(#e)" fill-opacity=".4" d="M152.838 76.422l-57.319 57.314-19.103 19.103-19.103-19.103L0 76.422 76.416 0z" transform="translate(16 5)"/>
        <path fill="url(#f)" fill-opacity=".4" d="M153.422 77l-38.211 76.417L77 191.628v-38.211l19.103-19.103z" transform="translate(16 5)"/>
    </g>
</svg>
