<svg xmlns="http://www.w3.org/2000/svg" width="96" height="96" viewBox="0 0 96 96">
    <g fill="none" fill-rule="evenodd">
        <path d="M0 0h96v96H0z"/>
        <g fill="#278EFF" fill-rule="nonzero">
            <path d="M43.937 31.406l-.002.002L2 73.26 7.753 79l54.702-54.595-5.752-5.74-12.766 12.74zM7.752 75.174L5.835 73.26l39.058-38.982 1.918 1.914L7.752 75.174zm40.977-40.897l-1.917-1.913 9.89-9.871 1.918 1.913-9.89 9.871zM56.121 14.067c.636 0 1.152-.6 1.152-1.34V3.34c0-.742-.516-1.341-1.152-1.341-.635 0-1.151.6-1.151 1.34v9.386c0 .742.516 1.341 1.151 1.341zM56.121 33.03c-.635 0-1.151.6-1.151 1.34v9.386c0 .742.516 1.341 1.151 1.341.636 0 1.152-.6 1.152-1.34V34.37c0-.742-.516-1.341-1.152-1.341zM76.657 22.112h-9.404c-.742 0-1.344.514-1.344 1.15 0 .635.602 1.148 1.344 1.148h9.404c.741 0 1.343-.513 1.343-1.149 0-.635-.602-1.15-1.343-1.15zM36.162 24.41h9.404c.741 0 1.343-.513 1.343-1.149 0-.635-.602-1.15-1.343-1.15h-9.404c-.742 0-1.344.515-1.344 1.15 0 .636.602 1.15 1.344 1.15zM64.932 16.366c.34 0 .678-.13.937-.388l6.56-6.548a1.32 1.32 0 0 0 0-1.87 1.326 1.326 0 0 0-1.874 0l-6.56 6.548a1.323 1.323 0 1 0 .937 2.258zM65.869 30.545a1.326 1.326 0 0 0-1.874 0 1.32 1.32 0 0 0 0 1.87l6.56 6.548a1.323 1.323 0 0 0 1.875 0 1.32 1.32 0 0 0 0-1.87l-6.561-6.548zM47.525 15.978a1.323 1.323 0 0 0 1.874 0 1.32 1.32 0 0 0 0-1.87L42.84 7.56a1.326 1.326 0 0 0-1.875 0 1.32 1.32 0 0 0 0 1.87l6.561 6.548z"/>
        </g>
        <path fill="#00FDFC" d="M48.949 34L47 32.051 57.051 22 59 23.949zM10.15 34.128L6 37l3.004-3.875a5.4 5.4 0 0 0 .176-6.378L6.59 23l3.456 2.603a5.4 5.4 0 0 0 6.497 0L20 23l-2.755 3.989a5.4 5.4 0 0 0-.054 6.059l2.218 3.335-3.017-2.187a5.4 5.4 0 0 0-6.242-.068zM68.15 59.128L64 62l3.004-3.875a5.4 5.4 0 0 0 .176-6.378L64.59 48l3.456 2.603a5.4 5.4 0 0 0 6.497 0L78 48l-2.755 3.989a5.4 5.4 0 0 0-.054 6.059l2.218 3.335-3.017-2.187a5.4 5.4 0 0 0-6.242-.068zM38.84 84.882L30 91l6.493-8.375a5.4 5.4 0 0 0 .175-6.378L30.971 68l7.766 5.848a5.4 5.4 0 0 0 6.497 0L53 68l-5.864 8.489a5.4 5.4 0 0 0-.053 6.059l4.946 7.438-6.947-5.035a5.4 5.4 0 0 0-6.242-.069z"/>
    </g>
</svg>
