<svg xmlns="http://www.w3.org/2000/svg" width="96" height="96" viewBox="0 0 96 96">
    <g fill="none" fill-rule="evenodd">
        <path d="M0 0h96v96H0z"/>
        <path fill="#278EFF" fill-rule="nonzero" d="M51.119 53.471c.211 0 .42-.05.61-.144l8.186-4.103a1.37 1.37 0 0 0 0-2.447l-8.186-4.103a1.363 1.363 0 0 0-1.975 1.223v2.735h-5.458V17.91h5.458v2.735a1.366 1.366 0 0 0 1.975 1.224l8.186-4.103a1.37 1.37 0 0 0 0-2.447l-8.186-4.103a1.363 1.363 0 0 0-1.975 1.223v2.735h-6.822c-.753 0-1.364.612-1.364 1.368v30.09h-9.62c-.755-8.272-8.058-14.365-16.31-13.608-8.252.758-14.33 8.078-13.575 16.35.708 7.746 7.188 13.673 14.946 13.671 7.755-.01 14.227-5.936 14.94-13.677h9.619v30.09c0 .755.61 1.368 1.363 1.368h6.823v2.735a1.366 1.366 0 0 0 1.975 1.224l8.186-4.103a1.37 1.37 0 0 0 0-2.447l-8.186-4.104a1.363 1.363 0 0 0-1.975 1.224v2.735h-5.458V49.368h5.458v2.735c0 .756.611 1.368 1.365 1.368zm1.364-7.36L56.254 48l-3.771 1.89v-3.78zm0-31.459l3.771 1.89-3.771 1.89v-3.78zM17.009 60.31c-6.782 0-12.28-5.511-12.28-12.31.008-6.795 5.502-12.302 12.28-12.31 6.782 0 12.28 5.512 12.28 12.31 0 6.799-5.498 12.31-12.28 12.31zm35.474 17.258l3.771 1.89-3.771 1.89v-3.78zM76.79 16.168A5.425 5.425 0 0 0 76.61 8.5a5.42 5.42 0 0 0-7.665.179c-2 2.095-2 5.393 0 7.49a8.14 8.14 0 0 0-4.21 7.121v6.78c0 .748.606 1.355 1.354 1.356h13.555c.748 0 1.355-.607 1.355-1.356v-6.78a8.14 8.14 0 0 0-4.21-7.122zm-3.922-6.436a2.711 2.711 0 1 1-.001 5.422 2.711 2.711 0 0 1 0-5.422zm5.421 18.982H67.446v-5.423a5.423 5.423 0 1 1 10.843 0v5.423zM76.79 44.665a5.425 5.425 0 0 0-.179-7.668 5.42 5.42 0 0 0-7.665.178c-2 2.096-2 5.394 0 7.49a8.14 8.14 0 0 0-4.21 7.122v6.78c0 .748.606 1.355 1.354 1.355h13.555c.748 0 1.355-.607 1.355-1.355v-6.78a8.14 8.14 0 0 0-4.21-7.122zm-3.922-6.437a2.711 2.711 0 1 1-.001 5.423 2.711 2.711 0 0 1 0-5.423zm5.421 18.982H67.446v-5.423a5.423 5.423 0 1 1 10.843 0v5.423zM76.79 73.743a5.425 5.425 0 0 0-.179-7.668 5.42 5.42 0 0 0-7.665.178c-2 2.096-2 5.394 0 7.49a8.14 8.14 0 0 0-4.21 7.122v6.78c0 .748.606 1.355 1.354 1.355h13.555c.748 0 1.355-.607 1.355-1.355v-6.78a8.14 8.14 0 0 0-4.21-7.122zm-3.922-6.436a2.711 2.711 0 1 1-.001 5.422 2.711 2.711 0 0 1 0-5.422zm5.421 18.981H67.446v-5.423a5.423 5.423 0 1 1 10.843 0v5.423z"/>
        <path fill="#00FDFC" d="M72.868 38.228a2.711 2.711 0 1 1-.001 5.423 2.711 2.711 0 0 1 0-5.423zM78.29 57.21H67.445v-5.423a5.423 5.423 0 1 1 10.843 0v5.423z"/>
        <path fill="#278EFF" fill-rule="nonzero" d="M17.505 46.69c-1.528-.483-1.757-.67-1.757-1.432 0-.757.606-1.37 1.355-1.37.748 0 1.355.613 1.355 1.37h2.711a4.103 4.103 0 0 0-2.71-3.86v-2.994h-2.711v2.994a4.103 4.103 0 0 0-2.711 3.86c0 2.893 2.292 3.616 3.66 4.049 1.53.482 1.761.669 1.761 1.435 0 .756-.607 1.37-1.355 1.37a1.365 1.365 0 0 1-1.355-1.37h-2.711a4.103 4.103 0 0 0 2.71 3.86v2.994h2.711v-2.994a4.103 4.103 0 0 0 2.711-3.86c0-2.897-2.294-3.622-3.664-4.053z"/>
        <path fill="#00FDFC" d="M72.5 67a2.5 2.5 0 1 1 0 5 2.5 2.5 0 0 1 0-5zM78 86H67v-5.5a5.5 5.5 0 0 1 11 0V86zM72.5 10a2.5 2.5 0 1 1 0 5 2.5 2.5 0 0 1 0-5zM78 29H67v-5.5a5.5 5.5 0 0 1 11 0V29z"/>
    </g>
</svg>
