<svg xmlns="http://www.w3.org/2000/svg" width="96" height="96" viewBox="0 0 96 96">
    <g fill="none" fill-rule="evenodd">
        <g fill="#278EFF" fill-rule="nonzero">
            <path d="M77.927 16H16.073C13.276 16 11 18.287 11 21.099V72.9C11 75.713 13.276 78 16.073 78h40.511a1.21 1.21 0 0 0 1.208-1.214c0-.67-.541-1.213-1.208-1.213h-4.51V67.72a5.085 5.085 0 0 0-3.123-4.706l-6.344-2.657a1.373 1.373 0 0 1-.843-1.27v-1.895a9.038 9.038 0 0 0 2.578-6.308v-5.18c0-4.24-4.01-7.689-8.94-7.689-4.929 0-8.939 3.45-8.939 7.69v5.18c0 2.382.952 4.645 2.578 6.307v1.894c0 .558-.331 1.057-.843 1.271l-6.344 2.657a5.086 5.086 0 0 0-3.122 4.706v7.852h-2.659a2.668 2.668 0 0 1-2.658-2.672V31.378h67.17v20.155c0 .67.54 1.213 1.207 1.213A1.21 1.21 0 0 0 83 51.533V21.099C83 18.287 80.724 16 77.927 16zm-56.78 51.721c0-1.082.642-2.05 1.636-2.466l6.344-2.657a3.794 3.794 0 0 0 2.329-3.51v-.264c.443.029.885-.189 1.123-.601a1.217 1.217 0 0 0-.44-1.659 6.589 6.589 0 0 1-3.26-5.678v-5.18c0-2.902 2.926-5.263 6.524-5.263 3.597 0 6.524 2.36 6.524 5.262v5.18a6.59 6.59 0 0 1-3.263 5.68 1.217 1.217 0 0 0-.44 1.659c.223.389.629.606 1.046.606.027 0 .053-.003.08-.005v.263c0 1.54.914 2.918 2.329 3.51l6.344 2.657a2.665 2.665 0 0 1 1.636 2.466v7.852H21.147v-7.852zm59.438-38.77h-67.17v-7.852a2.668 2.668 0 0 1 2.658-2.672h61.854a2.668 2.668 0 0 1 2.658 2.672v7.852z"/>
            <path d="M17.754 22.29h-.015c-.743 0-1.339.603-1.339 1.348 0 .744.61 1.348 1.354 1.348a1.347 1.347 0 0 0 0-2.696zM24.954 22.29h-.015c-.743 0-1.339.603-1.339 1.348 0 .744.61 1.348 1.354 1.348a1.347 1.347 0 0 0 0-2.696zM21.354 22.29h-.015c-.743 0-1.339.603-1.339 1.348 0 .744.61 1.348 1.354 1.348a1.347 1.347 0 0 0 0-2.696zM76.398 22.29H30.202c-.664 0-1.202.603-1.202 1.348 0 .744.538 1.348 1.202 1.348h46.196c.664 0 1.202-.604 1.202-1.348 0-.745-.538-1.348-1.202-1.348zM73.256 34.667H52.244a2.54 2.54 0 0 0-2.544 2.532v3.921a2.54 2.54 0 0 0 2.544 2.532h21.012A2.54 2.54 0 0 0 75.8 41.12V37.2a2.54 2.54 0 0 0-2.544-2.532zm.083 6.453a.082.082 0 0 1-.083.082H52.244a.082.082 0 0 1-.083-.082V37.2c0-.046.037-.082.083-.082h21.012c.046 0 .083.036.083.082v3.921zM67.384 48.348H51.816c-.672 0-1.216.603-1.216 1.348 0 .744.544 1.347 1.216 1.347h15.568c.672 0 1.216-.603 1.216-1.347 0-.745-.544-1.348-1.216-1.348zM61.065 53.74h-9.23c-.682 0-1.235.603-1.235 1.347s.553 1.348 1.235 1.348h9.23c.682 0 1.235-.604 1.235-1.348 0-.744-.553-1.348-1.235-1.348z"/>
        </g>
        <g stroke-width="3">
            <path fill="#01E8CD" stroke="#278EFF" stroke-linejoin="round" d="M86.555 78.918l-.081.041-11.527 6.813a4.476 4.476 0 0 1-3.894 0l-11.45-6.767-.158-.087A4.456 4.456 0 0 1 57 74.923V51.44v-.737l9.02-2.651.013-.004L73 46l16 4.703v24.22c0 1.699-.937 3.23-2.445 3.995z"/>
            <path stroke="#FFF" d="M65 63.483L72.517 71l10-10"/>
        </g>
        <path d="M0 0h96v96H0z"/>
    </g>
</svg>
