<svg xmlns="http://www.w3.org/2000/svg" width="200" height="200" viewBox="0 0 200 200">
    <g fill="none" fill-rule="evenodd">
        <path d="M0 0h200v200H0z"/>
        <g stroke="#278EFF" stroke-width="3">
            <path fill="#00FDFC" fill-rule="nonzero" d="M56.984 80c-4.642 0-8.639 2.669-10.763 6.569a9.025 9.025 0 0 0-1.63-.169c-4.061 0-7.477 2.706-8.742 6.456-.185-.012-.363-.056-.554-.056-5.132 0-9.295 4.3-9.295 9.6s4.163 9.6 9.295 9.6H66.28c5.132 0 9.295-4.3 9.295-9.6 0-4.194-2.62-7.725-6.25-9.031.005-.194.054-.375.054-.569 0-7.069-5.55-12.8-12.394-12.8zM99.897 113c-6.426 0-11.96 3.694-14.9 9.093-.734-.134-1.484-.234-2.259-.234-5.622 0-10.351 3.747-12.102 8.938-.256-.017-.503-.078-.767-.078-7.105 0-12.869 5.952-12.869 13.29 0 7.336 5.764 13.288 12.87 13.288h42.896c7.105 0 12.869-5.952 12.869-13.289 0-5.805-3.628-10.694-8.655-12.502.009-.268.076-.519.076-.787 0-9.785-7.683-17.719-17.16-17.719z"/>
            <path fill="#FFF" fill-rule="nonzero" d="M132.647 45.171c-.396.384-.872.82-1.429 1.3-2.107 1.816-4.673 3.626-7.712 5.311-8.3 4.604-18.509 7.432-30.711 7.646v34.157c0 18.472 8.16 35.852 22.287 46.882 5.383 4.205 11.235 7.364 17.565 9.291 6.33-1.927 12.179-5.085 17.566-9.29 14.126-11.031 22.287-28.41 22.287-46.883V59.428c-12.203-.214-22.411-3.042-30.712-7.646-3.039-1.685-5.604-3.495-7.712-5.311a34.097 34.097 0 0 1-1.429-1.3z"/>
            <path d="M117.929 94.023l13.138 12.574 21.906-20.966"/>
        </g>
    </g>
</svg>
