<svg xmlns="http://www.w3.org/2000/svg" width="96" height="96" viewBox="0 0 96 96">
    <g fill="none" fill-rule="evenodd">
        <g fill="#FFF" fill-rule="nonzero">
            <path d="M31.616 31.56a2.732 2.732 0 0 0 2.752 2.752 2.732 2.732 0 0 0 2.752-2.752 2.732 2.732 0 0 0-2.752-2.752 2.732 2.732 0 0 0-2.752 2.752zm3.776 0a1.01 1.01 0 0 1-1.024 1.024 1.01 1.01 0 0 1-1.024-1.024 1.01 1.01 0 0 1 1.024-1.024 1.01 1.01 0 0 1 1.024 1.024zM38.016 31.56a2.732 2.732 0 0 0 2.752 2.752 2.732 2.732 0 0 0 2.752-2.752 2.732 2.732 0 0 0-2.752-2.752 2.732 2.732 0 0 0-2.752 2.752zm3.84 0a1.01 1.01 0 0 1-1.024 1.024 1.01 1.01 0 0 1-1.024-1.024 1.01 1.01 0 0 1 1.024-1.024c.512 0 1.024.448 1.024 1.024zM44.416 31.56a2.732 2.732 0 0 0 2.752 2.752 2.732 2.732 0 0 0 2.752-2.752 2.732 2.732 0 0 0-2.752-2.752c-1.472 0-2.752 1.216-2.752 2.752zm3.84 0a1.01 1.01 0 0 1-1.024 1.024 1.01 1.01 0 0 1-1.024-1.024 1.01 1.01 0 0 1 1.024-1.024 1.01 1.01 0 0 1 1.024 1.024zM81.728 37.576c-.256-.384-.832-.512-1.216-.192-.384.256-.512.832-.192 1.216a10.006 10.006 0 0 1 1.856 5.824c0 5.568-4.544 10.112-10.112 10.112-5.568 0-10.112-4.544-10.112-10.112 0-5.568 4.544-10.112 10.112-10.112 2.304 0 4.48.768 6.272 2.176.384.32.896.256 1.216-.128.32-.384.256-.896-.128-1.216a11.825 11.825 0 0 0-7.36-2.56c-6.528 0-11.84 5.312-11.84 11.84s5.312 11.84 11.84 11.84 11.84-5.312 11.84-11.84c0-2.496-.768-4.864-2.176-6.848z"/>
            <path d="M72.256 58.12c-.448 0-.896.384-.896.896v20.736c0 1.536-1.28 2.816-2.816 2.816H32.192c-1.536 0-2.816-1.28-2.816-2.816V37.256h31.68c.448 0 .896-.384.896-.896a.875.875 0 0 0-.896-.896h-31.68V30.6c0-1.536 1.28-2.816 2.816-2.816h36.352c1.536 0 2.816 1.28 2.816 2.816 0 .448.384.896.896.896a.875.875 0 0 0 .896-.896c0-2.496-2.048-4.544-4.544-4.544H32.192c-2.496 0-4.544 2.048-4.544 4.544v49.088c0 2.496 2.048 4.544 4.544 4.544h36.352c2.496 0 4.544-2.048 4.544-4.544V58.952a.847.847 0 0 0-.832-.832z"/>
            <path d="M57.728 43.208c0-.448-.384-.896-.896-.896h-19.2c-.448 0-.896.384-.896.896 0 .448.384.896.896.896h19.2a.875.875 0 0 0 .896-.896zM34.624 43.016c-.192-.768-1.216-.96-1.6-.256-.384.704.32 1.472 1.024 1.216.384-.064.64-.512.576-.96zM37.632 53.768h19.2c.448 0 .896-.384.896-.896 0-.448-.384-.896-.896-.896h-19.2c-.448 0-.896.384-.896.896.064.512.448.896.896.896zM34.368 52.296c-.512-.512-1.472-.128-1.472.64 0 .384.256.704.64.832.32.128.704 0 .96-.32.256-.384.192-.896-.128-1.152zM65.536 57.736c0-.448-.384-.896-.896-.896H59.2c-.448 0-.896.384-.896.896 0 .448.384.896.896.896h5.44c.512-.064.896-.448.896-.896zM56.32 56.84H46.208c-.448 0-.896.384-.896.896 0 .448.384.896.896.896H56.32c.448 0 .896-.384.896-.896a.875.875 0 0 0-.896-.896zM37.632 58.568h5.696c.448 0 .896-.384.896-.896 0-.448-.384-.896-.896-.896h-5.696c-.448 0-.896.384-.896.896.064.512.448.896.896.896zM34.368 57.096c-.576-.576-1.536-.128-1.472.64 0 .384.256.64.576.768.384.128.768 0 .96-.32a.796.796 0 0 0-.064-1.088zM37.632 63.432h14.016c.448 0 .896-.384.896-.896 0-.448-.384-.896-.896-.896H37.632c-.448 0-.896.384-.896.896.064.512.448.896.896.896zM34.624 62.408c-.192-.768-1.216-.96-1.6-.256a.87.87 0 0 0 .128 1.024c.256.256.64.32.96.128.384-.128.576-.512.512-.896zM57.664 68.232h2.624c.448 0 .896-.384.896-.896 0-.448-.384-.896-.896-.896h-2.624c-.448 0-.896.384-.896.896s.384.896.896.896zM55.616 67.4c0-.448-.384-.896-.896-.896h-7.68c-.448 0-.896.384-.896.896 0 .448.384.896.896.896h7.68c.512-.064.896-.448.896-.896zM37.632 68.232h6.592c.448 0 .896-.384.896-.896 0-.448-.384-.896-.896-.896h-6.592c-.448 0-.896.384-.896.896.064.512.448.896.896.896zM34.368 66.76c-.576-.576-1.536-.128-1.472.64 0 .384.256.64.576.768.384.128.768 0 .96-.32a.796.796 0 0 0-.064-1.088zM51.968 73.096H64.32c.448 0 .896-.384.896-.896a.875.875 0 0 0-.896-.896H51.968c-.448 0-.896.384-.896.896s.384.896.896.896zM49.92 72.2c0-.448-.384-.896-.896-.896H37.632c-.448 0-.896.384-.896.896s.384.896.896.896h11.456c.448 0 .832-.384.832-.896zM34.624 72.072c-.128-.768-1.152-.96-1.6-.256-.384.64.256 1.536.96 1.28.448-.192.704-.576.64-1.024zM37.632 76.168c-.448 0-.896.384-.896.896 0 .448.384.896.896.896h5.696c.448 0 .896-.384.896-.896 0-.448-.384-.896-.896-.896h-5.696zM34.56 76.744a.87.87 0 0 0-1.6 0c-.128.32-.064.768.256 1.024.256.192.64.256.96.064.384-.192.576-.704.384-1.088zM37.632 48.904h4.352c.448 0 .896-.384.896-.896 0-.448-.384-.896-.896-.896h-4.352c-.448 0-.896.384-.896.896.064.512.448.896.896.896zM45.056 47.176c-.448 0-.896.384-.896.896 0 .448.384.896.896.896h8.32c.448 0 .896-.384.896-.896 0-.448-.384-.896-.896-.896h-8.32zM34.624 47.88c-.128-.768-1.216-.96-1.6-.256-.384.704.256 1.536 1.024 1.28.384-.192.64-.576.576-1.024zM75.968 39.048L71.36 47.88l-3.328-3.456c-.32-.32-.896-.384-1.216 0-.32.32-.384.896 0 1.216l4.16 4.352a.822.822 0 0 0 .64.256h.128c.256-.064.512-.192.64-.448l5.184-9.856c.192-.448.064-.96-.384-1.152-.448-.32-.96-.128-1.216.256z"/>
        </g>
        <path fill="#FFF" fill-rule="nonzero" d="M27.968 77.64c-1.536-.064-2.752-1.28-2.752-2.816V25.672c0-1.536 1.28-2.816 2.816-2.816h36.352c1.536 0 2.816 1.28 2.816 2.816 0 .448.384.896.896.896.448 0 .896-.384.896-.896 0-2.496-2.048-4.544-4.544-4.544H28.032c-2.496 0-4.544 2.048-4.544 4.544V74.76c0 2.304 1.728 4.16 4.288 4.48l.192-1.6z"/>
        <path fill="#FFF" fill-rule="nonzero" d="M23.552 72.712c-1.536-.064-2.752-1.28-2.752-2.816V20.808c0-1.536 1.28-2.816 2.816-2.816h36.352c1.536 0 2.816 1.28 2.816 2.816 0 .448.384.896.896.896.448 0 .896-.384.896-.896 0-2.496-2.048-4.544-4.544-4.544H23.68c-2.496 0-4.544 2.048-4.544 4.544v49.088c0 2.304 1.6 4.224 4.416 4.48v-1.664z"/>
        <path d="M0 0h96v96H0z"/>
    </g>
</svg>
