<svg xmlns="http://www.w3.org/2000/svg" width="96" height="96" viewBox="0 0 96 96">
    <g fill="none" fill-rule="evenodd">
        <g fill="#FFF" fill-rule="nonzero">
            <path d="M81.408 75.456c-.448 1.216-1.088 2.176-2.432 2.496-.448.128-.832.128-1.28.128H44.928c-2.304 0-3.584-1.344-3.584-3.648V48.384c0-2.368 1.344-3.648 3.712-3.648h32.192c2.048 0 3.52.64 4.16 2.624v28.096zm-20.096.512h16.576c1.024 0 1.408-.448 1.408-1.408v-.64-25.344c0-1.408-.32-1.728-1.728-1.728H45.184c-1.408 0-1.792.32-1.792 1.792v25.6c0 1.472.32 1.792 1.792 1.792 5.44-.064 10.816-.064 16.128-.064z"/>
            <path d="M30.208 65.728c-.576.576-1.088 1.152-1.664 1.728-1.216 1.216-2.624 1.216-3.84 0-1.344-1.28-2.624-2.624-3.904-3.904-1.216-1.216-1.152-2.688 0-3.84.448-.448.96-.896 1.344-1.408.128-.128.192-.512.128-.64a24.417 24.417 0 0 1-2.496-5.952c-.064-.128-.32-.384-.448-.384-.704-.064-1.408 0-2.176 0-1.472-.064-2.56-1.088-2.56-2.56V42.88c0-1.472 1.024-2.496 2.56-2.56h2.112c.192 0 .512-.192.576-.384.576-2.176 1.472-4.288 2.752-6.4L20.864 32c-1.28-1.28-1.216-2.688 0-3.968l3.84-3.84c1.28-1.28 2.688-1.28 3.968 0 .512.512 1.024 1.088 1.472 1.536 2.304-.96 4.544-1.92 6.848-2.88v-2.176c0-1.728 1.024-2.752 2.688-2.752h5.632c1.664 0 2.624 1.024 2.688 2.688v1.984c0 .192.192.512.384.576 1.088.384 2.176.704 3.2 1.088 1.024.448 2.048.96 3.2 1.536.448-.512.96-1.088 1.536-1.664 1.28-1.28 2.688-1.216 3.968 0 1.28 1.28 2.624 2.56 3.904 3.904 1.216 1.216 1.216 2.624 0 3.84-.576.576-1.152 1.088-1.6 1.536.704 1.6 1.344 3.008 1.984 4.48.256.576.384 1.152.512 1.728.128.448.32.576.768.576.64-.064 1.28 0 1.92 0 .704 0 1.088.448 1.152 1.024 0 .576-.448 1.024-1.088 1.088-1.088.064-2.176 0-3.264 0-.704 0-1.024-.448-1.216-1.088-.576-1.664-1.152-3.392-1.792-4.992-.32-.768-.768-1.408-1.152-2.112-.384-.576-.256-1.088.192-1.6.704-.704 1.408-1.408 2.112-2.048.384-.384.384-.64 0-1.024l-3.84-3.84c-.384-.384-.704-.32-1.024.064-.64.704-1.344 1.344-2.048 2.048-.576.576-.96.64-1.6.192-2.24-1.408-4.544-2.368-7.104-2.944-.832-.192-1.024-.512-1.024-1.344v-2.88c0-.512-.192-.768-.704-.704h-5.44c-.512 0-.704.192-.704.704v2.944c0 .704-.256 1.088-.96 1.28-2.56.576-4.992 1.6-7.232 3.008-.576.384-1.088.256-1.6-.192-.64-.704-1.344-1.344-2.048-2.048-.384-.448-.704-.384-1.152 0a101.508 101.508 0 0 1-3.712 3.712c-.448.448-.448.768 0 1.152.704.64 1.344 1.344 1.984 1.984.576.576.64.96.192 1.664-1.408 2.24-2.432 4.608-2.944 7.168-.128.704-.576.96-1.28.96h-2.944c-.512 0-.704.192-.704.704v5.376c0 .512.192.768.704.768h2.944c.704 0 1.152.32 1.28.96.576 2.624 1.6 4.992 3.008 7.232.384.576.256 1.088-.192 1.6-.704.64-1.344 1.344-2.048 2.048-.384.384-.448.704 0 1.088 1.28 1.216 2.56 2.496 3.776 3.776.384.384.704.384 1.024 0 .704-.704 1.408-1.408 2.048-2.112.512-.512 1.024-.576 1.6-.192a23.116 23.116 0 0 0 7.232 3.008c.64.128.96.576.96 1.216v3.072c0 .768-.448 1.216-1.088 1.216-.64 0-1.024-.512-1.024-1.28v-1.92c0-.32-.064-.512-.448-.576-2.304-.512-4.352-1.408-6.4-2.624z"/>
            <path d="M42.112 31.296c6.464.128 11.712 3.776 13.824 9.344.128.384.128.896-.064 1.216-.128.256-.64.512-.896.448-.32-.064-.704-.384-.896-.704-.576-.96-.96-1.984-1.6-2.944-2.816-4.032-8-6.08-12.672-4.928-5.12 1.216-8.832 5.184-9.6 10.24-.832 5.76 2.304 11.2 7.68 13.312.192.064.384.128.512.256.512.32.704.768.448 1.28-.192.512-.64.768-1.216.576a9.448 9.448 0 0 1-1.856-.768c-5.184-2.88-7.872-7.296-7.808-13.248.064-6.592 4.928-12.416 11.52-13.76 1.024-.192 2.048-.256 2.624-.32z"/>
            <path d="M42.176 35.776c3.84.128 6.592 1.6 8.576 4.608.512.768.512 1.408-.064 1.792-.576.384-1.152.192-1.664-.576-2.24-3.264-6.016-4.544-9.536-3.072-2.88 1.216-4.608 3.392-4.928 6.528-.32 3.008.896 5.504 3.392 7.296.192.128.384.256.512.384.512.448.64.96.32 1.472-.32.448-.896.576-1.472.256-1.92-1.152-3.328-2.752-4.16-4.864-2.24-5.76 1.024-11.968 7.04-13.44.768-.256 1.536-.32 1.984-.384zM59.328 68.928c.128-.192.256-.448.384-.576l9.344-9.344.32-.32c.576-.576 1.216-.64 1.664-.192.448.448.384 1.024-.192 1.664L60.096 70.912c-.704.704-1.216.704-1.92 0l-6.336-6.336a1.67 1.67 0 0 1-.448-1.088c0-.256.384-.64.64-.768.448-.192.896.064 1.216.384l5.248 5.248c.192.192.256.384.384.576h.448zM57.984 53.504H46.72c-.448-.064-.768-.384-.832-.896-.064-.512.128-.896.64-1.088.256-.064.576-.128.832-.128h21.376c.256 0 .576 0 .832.128.512.192.704.576.64 1.088-.064.512-.32.768-.832.896-.256.064-.448 0-.704 0H57.984zM74.752 53.504c-.384 0-.768.064-1.152 0-.512-.064-.896-.384-.896-.96-.064-.576.192-1.024.768-1.024a18.84 18.84 0 0 1 2.688 0c.576.064.832.512.768 1.024-.064.576-.384.96-.96.96h-1.216z"/>
        </g>
        <path d="M0 0h96v96H0z"/>
        <path d="M0 0h96v96H0z"/>
    </g>
</svg>
