<svg xmlns="http://www.w3.org/2000/svg" width="96" height="96" viewBox="0 0 96 96">
    <g fill="none" fill-rule="evenodd">
        <path fill="#FFF" fill-rule="nonzero" d="M78.912 79.808a6.65 6.65 0 0 1-6.656-6.656c0-1.152.32-2.368.896-3.328l.576-.96H55.296l.576.96c.576.96.896 2.176.896 3.328a6.65 6.65 0 0 1-6.656 6.656 6.65 6.65 0 0 1-6.656-6.656c0-1.216.32-2.368.96-3.392l.512-.832-.96-.128c-3.328-.448-5.888-3.328-5.888-6.656V22.272l-9.088-3.84c-.576-.256-.896-.96-.64-1.536.192-.448.576-.704 1.088-.704.128 0 .32 0 .448.064l9.856 4.16h.064l.128.064.064.064s.064 0 .064.064l.064.064.128.128.064.064v.064l.064.064.064.128.064.128v7.232l45.824 6.336h.384l.128.064c.064.064.128.064.128.064l.064.064.064.064.064.064.064.064.064.128.064.128.064.128v15.36a6.72 6.72 0 0 1-6.72 6.72h-35.84a7.127 7.127 0 0 1-3.456-.896l-.96-.576v6.016a4.425 4.425 0 0 0 4.416 4.416h34.048a6.65 6.65 0 0 1 6.656 6.656c0 3.584-3.008 6.528-6.656 6.528zm0-10.944a4.288 4.288 0 1 0 0 8.577 4.288 4.288 0 0 0 0-8.577zm-28.736 0a4.288 4.288 0 1 0 0 8.577 4.288 4.288 0 0 0 0-8.577zm-9.664-17.92a4.425 4.425 0 0 0 4.416 4.416H80.64a4.425 4.425 0 0 0 4.416-4.416v-14.08L40.512 30.72v20.224z"/>
        <path stroke="#FFF" stroke-linecap="round" stroke-linejoin="round" stroke-width="1.92" d="M17.6 52.928h10.88M10.56 59.328h10.88M8.64 46.208h14.4M14.4 39.168h14.4"/>
        <path d="M0 0h96v96H0z"/>
    </g>
</svg>
