<svg xmlns="http://www.w3.org/2000/svg" width="96" height="96" viewBox="0 0 96 96">
    <g fill="none" fill-rule="evenodd">
        <path fill="#FFF" fill-rule="nonzero" d="M82.88 47.616l-7.744-9.024 7.744-9.024c.192-.256.32-.576.256-.896-.064-.32-.256-.576-.576-.768L57.536 14.016c-.448-.256-.96-.192-1.28.192l-7.616 7.488-7.488-7.488c-.32-.384-.896-.448-1.344-.192L13.376 29.312c-.32.192-.512.512-.512.832-.064.384.128.704.384.96l8.96 7.68-7.744 10.24c-.192.256-.256.576-.192.896a.99.99 0 0 0 .512.704l7.68 4.288c0 .128-.064.192-.064.32v10.176c0 1.344.704 2.624 1.856 3.264L46.592 81.6c.576.32 1.28.512 1.984.512h.064c.64 0 1.28-.192 1.856-.512l22.272-12.864c1.216-.704 1.984-1.984 1.984-3.392V54.016l7.808-4.8c.256-.192.448-.448.512-.768.128-.256 0-.576-.192-.832zm-35.328 3.008L25.856 38.528 47.552 25.28v25.344zm2.176-25.408l21.76 13.312-21.76 12.096V25.216zm7.488-8.896L80.32 29.184l-6.848 8-23.04-14.08 6.784-6.784zm-17.024 0l6.784 6.784-23.168 14.144-8-6.784L40.192 16.32zM24 40l23.04 12.8-6.976 9.408-23.104-12.8L24 40zm1.408 26.816c-.512-.256-.768-.832-.768-1.344v-9.344l15.168 8.448c.192.128.32.128.512.128.32 0 .64-.128.896-.448l6.336-8.512v23.808L25.408 66.816zm47.232-1.472c0 .576-.32 1.152-.832 1.472L49.792 79.552V55.744l6.4 8.512c.192.32.576.448.896.448.192 0 .384-.064.576-.192L72.64 55.36v9.984zm-15.36-3.2l-6.976-9.28L73.408 40l6.912 8.064-23.04 14.08z"/>
        <path d="M0 0h96v96H0z"/>
    </g>
</svg>
