<svg xmlns="http://www.w3.org/2000/svg" width="96" height="96" viewBox="0 0 96 96">
    <g fill="none" fill-rule="evenodd">
        <g transform="translate(22.4 19.28)">
            <g fill="#FFF" fill-rule="nonzero" stroke="#FFF" stroke-width=".64">
                <path d="M6.016 61.12a5.873 5.873 0 0 1-5.888-5.888V11.328c0-.192.064-.384.192-.512L10.624.512a.727.727 0 0 1 .512-.192h28.416a5.873 5.873 0 0 1 5.888 5.888v27.84h-1.472V6.208a4.425 4.425 0 0 0-4.416-4.416H11.456L1.6 11.648v43.584a4.425 4.425 0 0 0 4.416 4.416h33.536a4.425 4.425 0 0 0 4.416-4.416v-2.048h1.472v2.048a5.873 5.873 0 0 1-5.888 5.888H6.016z"/>
                <path d="M6.528 12.096v-1.472h2.048a1.857 1.857 0 0 0 1.856-1.856V1.6h1.472v7.168a3.305 3.305 0 0 1-3.328 3.328H6.528zM38.848 10.816V8.768a1.857 1.857 0 0 0-1.856-1.856h-2.048V5.44h2.048a3.305 3.305 0 0 1 3.328 3.328v2.048h-1.472zM22.784 42.688c-.576 0-1.152-.128-1.664-.448l-9.024-4.416a.704.704 0 0 1-.384-.64V19.072c0-.384.32-.768.768-.768h20.672c.384 0 .768.32.768.768V37.12c0 .256-.192.512-.384.64l-9.024 4.416c-.64.384-1.152.512-1.728.512zm-9.6-5.952l8.64 4.224c.256.192.64.256.96.256.32 0 .64-.064.896-.256l8.704-4.288V19.84h-19.2v16.896z"/>
                <path d="M21.504 34.24a.727.727 0 0 1-.512-.192l-3.456-3.456 1.024-1.024 2.944 2.944 6.848-6.912 1.024 1.024-7.36 7.424a.727.727 0 0 1-.512.192zM25.344 52.096a3.305 3.305 0 0 1-3.328-3.328V46.72h1.472v2.048c0 1.024.832 1.856 1.856 1.856h7.168v1.472h-7.168zM29.76 5.44h1.472v1.472H29.76z"/>
            </g>
            <circle cx="44.672" cy="43.776" r="6.4" stroke="#FFF" stroke-linecap="round" stroke-linejoin="round" stroke-width="1.92"/>
            <circle cx="44.672" cy="43.776" r="1.408" fill="#FFF" fill-rule="nonzero"/>
        </g>
        <path d="M0 0h96v96H0z"/>
    </g>
</svg>
