<svg xmlns="http://www.w3.org/2000/svg" width="96" height="96" viewBox="0 0 96 96">
    <g fill="none" fill-rule="evenodd">
        <g fill="#FFF" fill-rule="nonzero">
            <path d="M78.912 70.336V37.312a4.288 4.288 0 0 0-4.288-4.288H69.44c0-.064-.064-.192-.064-.256l-.896.256H64v-1.728l-13.824-6.912L32 31.232v1.792h-4.928l-.512-.128c0 .064 0 .128-.064.128h-5.184a4.288 4.288 0 0 0-4.288 4.288V70.4h-2.112v4.288a4.288 4.288 0 0 0 4.288 4.288h57.6a4.288 4.288 0 0 0 4.288-4.288V70.4h-2.176v-.064zM51.2 27.328l9.088 4.544-9.088 3.392v-7.936zm0 10.176l10.688-3.968v11.648L51.2 39.872v-2.368zm9.088 9.28l-13.312 4.992v-8.96l3.136-1.152 10.176 5.12zm-13.376-6.208v-1.472l2.112-.832v1.472l-2.112.832zm2.176-13.44v8.896l-3.136 1.152-10.176-5.12 13.312-4.928zm-14.976 6.592L44.8 39.04v2.304l-10.688 3.968V33.728zm10.688 9.92v7.936l-9.088-4.544 9.088-3.392zm1.024 10.816L64 47.616v-8.192h4.288c0 1.024-.064 2.048-.192 3.008l2.112.32c.192-1.088.256-2.176.256-3.328h2.112v26.688H23.488V39.424H32v8.128l13.824 6.912zM19.2 37.312a2.13 2.13 0 0 1 2.112-2.112h4.672l-.192.96 2.112.32c.064-.448.128-.832.256-1.28H32v2.112H21.312v30.912h53.312V37.312H64V35.2h3.776c.064.384.192.768.256 1.152l2.112-.32c-.064-.256-.128-.576-.192-.832h4.672a2.13 2.13 0 0 1 2.112 2.112V70.4H51.2v2.112h-6.4V70.4H19.2V37.312zm59.712 37.312a2.13 2.13 0 0 1-2.112 2.112H19.2a2.13 2.13 0 0 1-2.112-2.112v-2.112h25.6a2.13 2.13 0 0 0 2.112 2.112h6.4a2.13 2.13 0 0 0 2.112-2.112h25.6v2.112zM35.328 23.616l-1.344-1.664c-.896.704-1.664 1.472-2.432 2.304l1.536 1.472a23.078 23.078 0 0 1 2.24-2.112zM40.512 20.608l-.768-1.984a18.673 18.673 0 0 0-3.008 1.472l1.088 1.856c.896-.512 1.792-.96 2.688-1.344z"/>
            <path d="M31.232 28.096L29.44 26.88c-.64.896-1.216 1.92-1.664 2.88l1.92.896c.448-.896.96-1.728 1.536-2.56zM68.16 29.632c-.512-1.024-1.024-1.984-1.664-2.88l-1.728 1.216a21.607 21.607 0 0 1 1.536 2.624l1.856-.96zM27.712 39.488H25.6c0 1.088.064 2.24.256 3.328l2.112-.32c-.128-.96-.256-1.984-.256-3.008zM62.784 25.6l1.536-1.472a19.77 19.77 0 0 0-2.432-2.24l-1.344 1.664c.832.64 1.6 1.344 2.24 2.048zM59.136 20.032c-.96-.576-1.984-1.024-3.008-1.472l-.768 1.984c.96.384 1.856.832 2.752 1.28l1.024-1.792zM52.928 17.6c-1.088-.256-2.176-.384-3.328-.512l-.128 2.112c1.024.064 1.984.192 3.008.448l.448-2.048zM46.4 19.264l-.192-2.112c-1.088.064-2.24.256-3.328.512l.448 2.048a18.737 18.737 0 0 1 3.072-.448zM61.952 56.96l-1.344-1.664c-.768.64-1.6 1.216-2.496 1.728L59.2 58.88c.96-.576 1.92-1.216 2.752-1.92zM56.192 60.288l-.768-1.984c-.96.384-1.92.64-2.88.896l.448 2.048c1.088-.192 2.176-.576 3.2-.96zM66.496 52.032l-1.792-1.216c-.576.832-1.216 1.6-1.92 2.368l1.536 1.472a16.92 16.92 0 0 0 2.176-2.624zM69.376 46.016l-2.048-.64c-.32.96-.64 1.92-1.088 2.816l1.92.896c.512-.96.896-1.984 1.216-3.072zM43.52 59.2a15.024 15.024 0 0 1-2.88-.896l-.768 1.984c1.024.384 2.112.704 3.2.96l.448-2.048zM49.664 61.76l-.128-2.112a23.58 23.58 0 0 1-3.008 0L46.4 61.76c.576.064 1.088.064 1.664.064.512 0 1.088 0 1.6-.064zM37.888 57.024a17.281 17.281 0 0 1-2.496-1.728l-1.344 1.664c.896.704 1.792 1.344 2.752 1.856l1.088-1.792zM29.504 52.096a27.07 27.07 0 0 0 2.112 2.624l1.536-1.472a22.196 22.196 0 0 1-1.92-2.368l-1.728 1.216zM28.672 45.44l-2.048.64c.32 1.088.768 2.112 1.216 3.136l1.92-.96a15.065 15.065 0 0 1-1.088-2.816z"/>
        </g>
        <path d="M0 0h96v96H0z"/>
    </g>
</svg>
