<svg xmlns="http://www.w3.org/2000/svg" width="200" height="200" viewBox="0 0 200 200">
    <g fill="none" fill-rule="evenodd">
        <g stroke="#278EFF" transform="translate(21 37)">
            <ellipse cx="76.5" cy="113.5" fill="#00FDFC" stroke-linejoin="round" stroke-width="3" rx="69.5" ry="13.5"/>
            <path fill="#FFF" fill-rule="nonzero" stroke-width="3" d="M32.71 51.58v5.92H19.696v-5.838c-.463-.005-.8-.008-1.038-.008h-6.44l1.241-7.179h3.698V29.221c-.056-.192-.157-.22-.572-.22H12.5v-6.753l1.507.007 4.93.023c.271 0 .524 0 .759-.002V16.5h13.013v5.913c.762.104 1.47.237 2.123.4 1.074.268 2.076.659 2.997 1.172a6.792 6.792 0 0 1 2.456 2.282c.608.948.966 2.05 1.08 3.274.227 2.257-.29 4.151-1.52 5.59a7.372 7.372 0 0 1 2.23 1.876c1.169 1.482 1.599 3.49 1.362 5.965-.125 1.247-.422 2.367-.898 3.357-.482.999-1.102 1.839-1.862 2.507-.742.653-1.643 1.186-2.696 1.604-.996.396-2.04.687-3.131.873-.657.112-1.37.201-2.14.267zM26.352 33.28c-.19 0-.414-.002-.672-.006a82.83 82.83 0 0 0-.828-.011v1.5h1.5v-1.483zm0-4.05v-2.978h-1.5v3a91.06 91.06 0 0 0 1.5-.021zm6.91 13.49c.068-.16.104-.35.104-.581 0-.305-.057-.544-.166-.743-.14-.257-.301-.453-.484-.6-.196-.157-.492-.31-.89-.448-.488-.169-.93-.291-1.324-.369-.397-.077-.91-.138-1.536-.18a24.084 24.084 0 0 0-1.506-.065c-.304 0-.675.005-1.108.014v4.77l.48.003c.265 0 .655-.01 1.168-.032.505-.022.93-.051 1.277-.086.341-.034.746-.093 1.21-.177.44-.08.799-.169 1.076-.264.285-.097.585-.227.899-.39.228-.12.392-.241.496-.357.118-.132.22-.294.304-.495z"/>
            <path fill="#FFF" stroke-linejoin="round" stroke-width="3" d="M82 76l14 38H68z"/>
            <path stroke-width="4" d="M130.135 57l.939 5.926a6 6 0 0 1-4.988 6.865l-90.283 14.3a6 6 0 0 1-6.864-4.988L28 73.177"/>
            <circle cx="82" cy="76" r="6" fill="#FFF" stroke-linejoin="round" stroke-width="3"/>
            <path fill="#FFF" stroke-linejoin="round" stroke-width="3" d="M55 65v6.105c0 2.616-4.254 4.747-6.152 4.747H6.152C4.254 75.852 0 73.721 0 71.105V65H54.999zM158 50.148v6.105c0 2.616-4.254 4.747-6.152 4.747h-42.696c-1.898 0-6.152-2.131-6.152-4.747v-6.105H157.999z"/>
            <g stroke-width="3">
                <path d="M132.5.148l19 14.25-19 14.25-18.5-14.25z"/>
                <path d="M113 14l9.5 24.148 9.5 9 10.5-9 10-24.648M132 46.148l.5-18.648"/>
            </g>
        </g>
        <path d="M0 0h200v200H0z"/>
    </g>
</svg>
