<svg xmlns="http://www.w3.org/2000/svg" width="96" height="96" viewBox="0 0 96 96">
    <g fill="none" fill-rule="evenodd">
        <path fill="#278EFF" fill-rule="nonzero" d="M84.966 59.2l-4.667-17.5a1.17 1.17 0 0 0-.746-.803 1.174 1.174 0 0 0-1.081.17l-14.002 10.5a1.15 1.15 0 0 0-.321.396c-.01.019-.03.03-.04.048l-3.095 6.706L65.16 23.47c.009-.08 0-.156-.007-.234-.002-.018.007-.034.004-.052 0-.007-.006-.012-.007-.02a1.165 1.165 0 0 0-.16-.431c-.02-.03-.038-.056-.06-.085a1.136 1.136 0 0 0-.342-.323l-14.002-8.167a1.171 1.171 0 0 0-1.236.038L35.35 23.529a1.167 1.167 0 0 0-.306.313c-.017.026-.035.05-.05.077a1.155 1.155 0 0 0-.145.4c-.001.008-.007.013-.008.02-.002.018.006.035.004.053-.006.066-.017.133-.011.2l2.045 25.567-9.47-7.89a1.168 1.168 0 0 0-1.747.296l-10.5 17.5a1.172 1.172 0 0 0-.161.495c-.005.057.018.113.022.171.007.114.003.228.043.338l7.592 20.598h-2.994V84h51.34v-2.333H68.67L84.772 60.2c.018-.024.019-.054.035-.079.063-.098.109-.201.14-.313.013-.046.03-.086.036-.132a1.159 1.159 0 0 0-.017-.477zm-8.163-13.964l-5.94 16.97-4.243-9.334 10.183-7.636zm-26.76-28.692l12.064 7.036-7.921 7.921H43.537l-5.794-6.76 12.3-8.197zM37.52 53.73l.001.002 1.249 1.04-9.892 7.193-.898-16.183 9.54 7.948zM25.71 47.026l.863 15.546-8.638-2.59 7.775-12.956zm.954 34.64h-1.52l-7.078-19.21 8.876 2.662 6.206 16.549h-6.484zm12.835 0h-3.859l-6.405-17.078L39.5 57.125v24.542zm2.334 0V54.835c0-.11-.041-.211-.07-.315-.017-.056-.014-.117-.038-.17a1.175 1.175 0 0 0-.311-.41l-2.023-1.687-1.942-24.268 4.415 5.15 3.385 48.533h-3.416zm8.248 0H47.59l-3.337-47.831h9.166l-3.337 47.832zm5.72-48.481l6.65-6.649L57.86 65.55l-5.086 11.019 3.027-43.384zm-2.81 48.482l7.066-15.307 5.104-11.057 4.542 9.99-8.735 16.374h-7.977zm12.761 0h-2.138l8.233-15.435 8.32-3.78-14.415 19.215zm7.254-18.525l6.014-17.179 3.436 12.884-9.45 4.295z"/>
        <g stroke-width="3">
            <path fill="#01E8CD" stroke="#278EFF" stroke-linejoin="round" d="M82.555 77.918l-.081.041-11.527 6.813a4.476 4.476 0 0 1-3.894 0l-11.45-6.767-.158-.087A4.456 4.456 0 0 1 53 73.923V50.44v-.737l9.02-2.651.013-.004L69 45l16 4.703v24.22c0 1.699-.937 3.23-2.445 3.995z"/>
            <path stroke="#FFF" d="M61 62.483L68.517 70l10-10"/>
        </g>
        <path fill="#278EFF" fill-rule="nonzero" d="M27.833 14.833a4.671 4.671 0 0 1-4.666-4.666 1.166 1.166 0 1 0-2.334 0 4.671 4.671 0 0 1-4.666 4.666 1.166 1.166 0 1 0 0 2.334 4.671 4.671 0 0 1 4.666 4.666 1.166 1.166 0 1 0 2.334 0 4.671 4.671 0 0 1 4.666-4.666 1.166 1.166 0 1 0 0-2.334zM22 17.968A7.057 7.057 0 0 0 20.032 16 7.057 7.057 0 0 0 22 14.032 7.057 7.057 0 0 0 23.968 16 7.057 7.057 0 0 0 22 17.968zM81.833 24.833a4.671 4.671 0 0 1-4.666-4.666 1.166 1.166 0 1 0-2.334 0 4.671 4.671 0 0 1-4.666 4.666 1.166 1.166 0 1 0 0 2.334 4.671 4.671 0 0 1 4.666 4.666 1.166 1.166 0 1 0 2.334 0 4.671 4.671 0 0 1 4.666-4.666 1.166 1.166 0 1 0 0-2.334zM76 27.968A7.072 7.072 0 0 0 74.032 26 7.057 7.057 0 0 0 76 24.032 7.072 7.072 0 0 0 77.968 26 7.072 7.072 0 0 0 76 27.968z"/>
        <path d="M0 0h96v96H0z"/>
    </g>
</svg>
