<svg xmlns="http://www.w3.org/2000/svg" width="96" height="96" viewBox="0 0 96 96">
    <g fill="none" fill-rule="evenodd">
        <circle cx="10.5" cy="47.5" r="4.5" fill="#01E8CD" fill-rule="nonzero"/>
        <circle cx="10.5" cy="73.5" r="4.5" fill="#01E8CD" fill-rule="nonzero"/>
        <path fill="#278EFF" fill-rule="nonzero" d="M61.814 34.151h-.48v-6.36C61.333 20.738 55.58 15 48.508 15s-12.825 5.738-12.825 12.791c0 .888.73 1.617 1.621 1.617.89 0 1.621-.729 1.621-1.617 0-5.276 4.31-9.575 9.6-9.575s9.601 4.299 9.601 9.575v6.36H35.204c-2.316 0-4.204 1.883-4.204 4.193v17.463C31 58.117 32.888 60 35.204 60h26.592C64.112 60 66 58.117 66 55.807V38.344a4.19 4.19 0 0 0-4.186-4.193zm.962 21.639c0 .533-.427.959-.962.959h-26.61a.957.957 0 0 1-.962-.96V38.327c0-.533.427-.96.962-.96h26.592c.535 0 .962.427.962.96V55.79h.018z"/>
        <path fill="#278EFF" fill-rule="nonzero" d="M47.916 42.046c-1.09-.229-2.232.421-2.695 1.528-.48 1.142-.165 2.424.81 3.18.199.158.232.299.232.527v3.408c0 .931.926 1.652 1.868 1.142.397-.21.629-.667.596-1.142v-3.408c0-.246.05-.404.264-.562C49.67 46.192 50 45.47 50 44.593c-.033-1.265-.876-2.302-2.084-2.547zM25.302 46.355h-9.285C15.278 43.843 12.934 42 10.128 42 6.75 42 4 44.693 4 48s2.75 6 6.128 6c2.788 0 5.15-1.843 5.889-4.355h9.303c.923 0 1.68-.741 1.68-1.645a1.697 1.697 0 0 0-1.698-1.645zm-15.174 4.356C8.596 50.71 7.36 49.5 7.36 48c0-1.5 1.236-2.71 2.768-2.71 1.533 0 2.77 1.21 2.77 2.71s-1.237 2.71-2.77 2.71z"/>
        <g fill-rule="nonzero" transform="translate(4 16)">
            <circle cx="6.5" cy="5.5" r="4.5" fill="#01E8CD"/>
            <path fill="#278EFF" d="M21.319 19.817h-10.18c-1.828 0-3.325-1.424-3.325-3.165v-5.205c2.568-.703 4.453-2.936 4.453-5.61C12.267 2.62 9.514 0 6.133 0 2.753 0 0 2.62 0 5.838c0 2.655 1.884 4.906 4.452 5.61v5.204c0 3.5 2.993 6.348 6.67 6.348h10.197c.924 0 1.681-.72 1.681-1.6 0-.88-.757-1.583-1.681-1.583zM3.344 5.837c0-1.459 1.238-2.637 2.77-2.637 1.534 0 2.772 1.178 2.772 2.638S7.648 8.476 6.115 8.476 3.344 7.297 3.344 5.838z"/>
        </g>
        <g fill-rule="nonzero" transform="matrix(-1 0 0 1 93 16)">
            <circle cx="6.5" cy="5.5" r="4.5" fill="#01E8CD"/>
            <path fill="#278EFF" d="M21.319 19.817h-10.18c-1.828 0-3.325-1.424-3.325-3.165v-5.205c2.568-.703 4.453-2.936 4.453-5.61C12.267 2.62 9.514 0 6.133 0 2.753 0 0 2.62 0 5.838c0 2.655 1.884 4.906 4.452 5.61v5.204c0 3.5 2.993 6.348 6.67 6.348h10.197c.924 0 1.681-.72 1.681-1.6 0-.88-.757-1.583-1.681-1.583zM3.344 5.837c0-1.459 1.238-2.637 2.77-2.637 1.534 0 2.772 1.178 2.772 2.638S7.648 8.476 6.115 8.476 3.344 7.297 3.344 5.838z"/>
        </g>
        <path fill="#278EFF" fill-rule="nonzero" d="M25.283 55h-10.17c-3.674 0-6.664 2.849-6.664 6.348v5.205C5.883 67.256 4 69.489 4 72.163 4 75.38 6.75 78 10.128 78s6.129-2.62 6.129-5.838c0-2.655-1.883-4.906-4.449-5.61v-5.204c0-1.741 1.495-3.165 3.323-3.165h10.19c.922 0 1.679-.721 1.679-1.6-.037-.862-.794-1.583-1.717-1.583zM12.88 72.162c0 1.46-1.237 2.638-2.769 2.638s-2.769-1.178-2.769-2.638 1.237-2.638 2.769-2.638 2.769 1.179 2.769 2.638z"/>
        <g stroke-width="3">
            <path fill="#01E8CD" stroke="#278EFF" stroke-linejoin="round" d="M85.555 75.918l-.081.041-11.527 6.813a4.476 4.476 0 0 1-3.894 0l-11.45-6.767-.158-.087A4.456 4.456 0 0 1 56 71.923V48.44v-.737l9.02-2.651.013-.004L72 43l16 4.703v24.22c0 1.699-.937 3.23-2.445 3.995z"/>
            <path stroke="#FFF" d="M64 60.483L71.517 68l10-10"/>
        </g>
        <path d="M0 0h96v96H0z"/>
    </g>
</svg>
