<svg xmlns="http://www.w3.org/2000/svg" width="200" height="200" viewBox="0 0 200 200">
    <g fill="none" fill-rule="evenodd">
        <path fill="#00FDFC" stroke="#278EFF" stroke-linejoin="round" stroke-width="3" d="M97 62h55v77H97z"/>
        <path fill="#FFF" fill-rule="nonzero" stroke="#3495FF" stroke-width="3" d="M79.754 85.783V51.786c0-1.584 1.695-2.87 3.78-2.87h24.347c6.242 0 11.326 3.86 11.326 8.6v22.536c0 4.74-5.084 8.601-11.326 8.601H83.535c-2.086 0-3.78-1.286-3.78-2.87z"/>
        <g fill="#3495FF">
            <path d="M95.861 66.296v4.98h12.409v-4.98z"/>
            <path d="M90.27 68.786c0 2.48 1.888 4.483 4.185 4.483 2.297 0 4.202-2.003 4.202-4.483 0-2.48-1.888-4.482-4.185-4.482-2.297 0-4.202 2.003-4.202 4.482z"/>
        </g>
        <path fill="#FFF" fill-rule="nonzero" stroke="#3495FF" stroke-width="3" d="M79.754 148.736v-33.997c0-1.584 1.695-2.87 3.78-2.87h24.347c6.242 0 11.326 3.86 11.326 8.6v22.537c0 4.74-5.084 8.6-11.326 8.6H83.535c-2.086 0-3.78-1.286-3.78-2.87z"/>
        <g fill="#3495FF">
            <path d="M95.861 129.249v4.98h12.409v-4.98z"/>
            <path d="M90.27 131.74c0 2.479 1.888 4.482 4.185 4.482 2.297 0 4.202-2.003 4.202-4.483 0-2.48-1.888-4.482-4.185-4.482-2.297 0-4.202 2.003-4.202 4.482z"/>
        </g>
        <path stroke="#3495FF" stroke-width="3" d="M79.913 81.6c-17.118 0-30.995 13.756-30.995 30.723 0 16.968 13.877 30.723 30.995 30.723"/>
        <path stroke="#3495FF" stroke-width="3" d="M79.913 56.718c-17.118 0-30.995 13.755-30.995 30.722 0 16.968 13.877 30.723 30.995 30.723"/>
        <path d="M0 0h200v200H0z"/>
    </g>
</svg>
